<svg width="46" height="48" viewBox="0 0 46 48" fill="none" xmlns="http://www.w3.org/2000/svg">
<rect y="0.810059" width="46" height="46.5" rx="5" fill="#D79447"/>
<g clip-path="url(#clip0_1_274)">
<path d="M16.84 19.7734L14.6933 20.5434V24.6734H12.36V18.9101L18.52 16.6701C18.8156 16.5612 19.1267 16.5145 19.4533 16.5301C20.0911 16.5456 20.6706 16.7479 21.1917 17.1368C21.7128 17.5256 22.0744 18.0312 22.2767 18.6534C22.4944 19.3223 22.6889 19.7812 22.86 20.0301C23.4044 20.7456 24.085 21.3095 24.9017 21.7218C25.7183 22.134 26.5933 22.3401 27.5267 22.3401V24.6734C26.2822 24.6734 25.1078 24.409 24.0033 23.8801C22.9144 23.3668 21.9889 22.6434 21.2267 21.7101L20.41 26.3301L22.86 28.3834V36.3401H20.5267V29.4801L17.89 27.2401L17.0267 32.0701L9 30.6468L9.39667 28.3601L15.1367 29.3634L16.84 19.7734ZM21.11 15.9234C20.69 15.9234 20.3011 15.8223 19.9433 15.6201C19.5856 15.4179 19.3017 15.1379 19.0917 14.7801C18.8817 14.4223 18.7767 14.0295 18.7767 13.6018C18.7767 13.174 18.8817 12.7812 19.0917 12.4234C19.3017 12.0656 19.5856 11.7818 19.9433 11.5718C20.3011 11.3618 20.69 11.2606 21.11 11.2684C21.53 11.2762 21.9189 11.3812 22.2767 11.5834C22.6344 11.7856 22.9183 12.0656 23.1283 12.4234C23.3383 12.7812 23.4433 13.174 23.4433 13.6018C23.4433 14.0295 23.3383 14.4223 23.1283 14.7801C22.9183 15.1379 22.6344 15.4218 22.2767 15.6318C21.9189 15.8418 21.53 15.9468 21.11 15.9468V15.9234Z" fill="white"/>
</g>
<defs>
<clipPath id="clip0_1_274">
<rect width="28" height="28" fill="white" transform="matrix(1 0 0 -1 9 37.8101)"/>
</clipPath>
</defs>
</svg>
