<svg width="46" height="48" viewBox="0 0 46 48" fill="none" xmlns="http://www.w3.org/2000/svg">
<rect y="0.810059" width="46" height="46.5" rx="5" fill="#D79447"/>
<g clip-path="url(#clip0_1_292)">
<path d="M20.6667 12.7268C21.9267 12.7268 23.1011 13.0457 24.19 13.6834C25.2478 14.3057 26.0878 15.1457 26.71 16.2034C27.3478 17.2923 27.6667 18.4668 27.6667 19.7268V20.8934H32.3333V23.2268H30.98L30.0933 33.8201C30.0622 34.1312 29.9339 34.3879 29.7083 34.5901C29.4828 34.7923 29.2222 34.8934 28.9267 34.8934H12.4067C12.1111 34.8934 11.8506 34.7923 11.625 34.5901C11.3994 34.3879 11.2711 34.1312 11.24 33.8201L10.3533 23.2268H9V20.8934H13.6667V19.7268C13.6667 18.4668 13.9856 17.2923 14.6233 16.2034C15.2456 15.1457 16.0856 14.3057 17.1433 13.6834C18.2322 13.0457 19.4067 12.7268 20.6667 12.7268ZM21.8333 25.5601H19.5V30.2268H21.8333V25.5601ZM17.1667 25.5601H14.8333V30.2268H17.1667V25.5601ZM26.5 25.5601H24.1667V30.2268H26.5V25.5601ZM20.6667 15.0601C19.8422 15.0601 19.0839 15.2584 18.3917 15.6551C17.6994 16.0518 17.1394 16.5884 16.7117 17.2651C16.2839 17.9418 16.0467 18.6845 16 19.4934V20.8934H25.3333V19.7268C25.3333 18.9023 25.135 18.144 24.7383 17.4518C24.3417 16.7595 23.805 16.1995 23.1283 15.7718C22.4517 15.344 21.7089 15.1068 20.9 15.0601H20.6667Z" fill="white"/>
</g>
<defs>
<clipPath id="clip0_1_292">
<rect width="28" height="28" fill="white" transform="matrix(1 0 0 -1 9 37.8101)"/>
</clipPath>
</defs>
</svg>
