<svg width="46" height="48" viewBox="0 0 46 48" fill="none" xmlns="http://www.w3.org/2000/svg">
<rect y="0.810059" width="46" height="46.5" rx="5" fill="#D79447"/>
<g clip-path="url(#clip0_1_256)">
<path d="M25.9167 13.0068C27.0833 13.0068 28.1567 13.3101 29.1367 13.9168C30.1167 14.5234 30.8867 15.3479 31.4467 16.3901C32.0378 17.479 32.3333 18.6845 32.3333 20.0068C32.3333 21.8112 31.9133 23.5456 31.0733 25.2101C30.3578 26.6256 29.3389 27.9868 28.0167 29.2934C26.99 30.3201 25.7689 31.3234 24.3533 32.3034C23.56 32.8479 22.5178 33.5012 21.2267 34.2634L20.6667 34.5901L20.1067 34.2634C18.7533 33.4701 17.6644 32.7856 16.84 32.2101C15.3622 31.1834 14.0944 30.1256 13.0367 29.0368C11.6989 27.6368 10.6878 26.1901 10.0033 24.6968L15.4867 24.6734L16.5833 22.8768L20.0833 28.7101L22.4867 24.6734H26.5V22.3401H21.18L20.0833 24.1601L16.5833 18.3268L14.18 22.3401H9.25667C9.08556 21.5779 9 20.8001 9 20.0068C9 18.6845 9.29556 17.479 9.88667 16.3901C10.4467 15.3479 11.2167 14.5234 12.1967 13.9168C13.1767 13.3101 14.25 13.0068 15.4167 13.0068C16.4278 13.0223 17.4311 13.2712 18.4267 13.7534C19.2667 14.1579 20.0133 14.6868 20.6667 15.3401C21.32 14.6868 22.0667 14.1579 22.9067 13.7534C23.9022 13.2556 24.9056 13.0068 25.9167 13.0068Z" fill="white"/>
</g>
<defs>
<clipPath id="clip0_1_256">
<rect width="28" height="28" fill="white" transform="matrix(1 0 0 -1 9 37.8101)"/>
</clipPath>
</defs>
</svg>
