<svg width="46" height="48" viewBox="0 0 46 48" fill="none" xmlns="http://www.w3.org/2000/svg">
<rect y="0.810059" width="46" height="46.5" rx="5" fill="#D79447"/>
<g clip-path="url(#clip0_1_238)">
<path d="M16.5833 22.6434H16.7467C17.1667 22.69 17.5244 22.8611 17.82 23.1567C18.1156 23.4522 18.2867 23.81 18.3333 24.23V24.3934V24.5567C18.2867 24.9767 18.1156 25.3345 17.82 25.63C17.5244 25.9256 17.1667 26.0967 16.7467 26.1434H16.5833H12.5V28.4767H16.5833C17.2367 28.4767 17.8472 28.3328 18.415 28.045C18.9828 27.7572 19.4572 27.3645 19.8383 26.8667C20.2194 26.3689 20.4722 25.8089 20.5967 25.1867L20.62 24.9767H27.6667C28.4756 24.9767 29.2533 24.8134 30 24.4867V29.6434C30 30.39 29.7822 31.0667 29.3467 31.6734C28.9111 32.28 28.3511 32.7 27.6667 32.9334V34.31C27.6667 34.6367 27.5539 34.9128 27.3283 35.1384C27.1028 35.3639 26.8267 35.4767 26.5 35.4767H12.5C12.1733 35.4767 11.8972 35.3639 11.6717 35.1384C11.4461 34.9128 11.3333 34.6367 11.3333 34.31V32.9334C10.6489 32.7 10.0889 32.28 9.65333 31.6734C9.21778 31.0667 9 30.39 9 29.6434V24.9767C9 24.5567 9.105 24.1678 9.315 23.81C9.525 23.4522 9.80889 23.1684 10.1667 22.9584C10.5244 22.7484 10.9133 22.6434 11.3333 22.6434H16.5833ZM31.1667 18.56V19.1434V19.3534C31.1356 19.9289 30.9683 20.4617 30.665 20.9517C30.3617 21.4417 29.965 21.8384 29.475 22.1417C28.985 22.445 28.4522 22.6122 27.8767 22.6434H20.27C19.9589 21.9745 19.4961 21.43 18.8817 21.01C18.2672 20.59 17.5789 20.3567 16.8167 20.31H11.3333C10.4933 20.31 9.71556 20.52 9 20.94V16.81C9 15.97 9.21 15.1922 9.63 14.4767C10.05 13.7611 10.6178 13.1934 11.3333 12.7734C12.0489 12.3534 12.8267 12.1434 13.6667 12.1434H24.75C25.9167 12.1434 26.99 12.4311 27.97 13.0067C28.95 13.5822 29.7278 14.36 30.3033 15.34C30.8789 16.32 31.1667 17.3934 31.1667 18.56Z" fill="white"/>
</g>
<defs>
<clipPath id="clip0_1_238">
<rect width="28" height="28" fill="white" transform="matrix(1 0 0 -1 9 37.8101)"/>
</clipPath>
</defs>
</svg>
